/* XPM */
static char *result[] = {
/* columns rows colors chars-per-pixel */
"64 64 12 1 ",
"  c #1D0E22",
". c gray21",
"X c #484848",
"o c gray39",
"O c #767676",
"+ c #AE4D30",
"@ c #CA781C",
"# c #D75B27",
"$ c #D08E03",
"% c #D8BC01",
"& c gray64",
"* c #D7D6CB",
/* pixels */
"XXXXXXXXXXXXXXXXXXXXXXXXXXXXXXXXXXXXXXXXXXXXXXXXXXXXXXXXXXXXXXXX",
"XXXXXXXXXXXXXXXXXXXXXXXXXXXXXXXXXXXXXXXXXXXXXXXXXXXXXXXXXXXXXXXX",
"XX&&&&&O&&&&&&&&&&o.XXO&&&&&&&&&&&&&&&&o.X&&&&&&&&&&&&&&&&&&&.XX",
"XX&OOOOOOOOOOOOOOOo.X&OOOOOOOOOOOOOOOOOo.X&OOOOOO&XO&XOOOO&XOo.X",
"XX&OOOOOOOOOOOOOOOo.X&OOXOOOOOOOOOOOOOOo.X&OOOOOOOOOOOOOOOOOOo.X",
"XX&OOOOOOOOOOOOOOoo.X&OOOOOOOOOOOOOOOOOo.X&OOOOOOOOOOOOOOOOOOo.X",
"XX&OOOOOOOOOOOOOOoo.X&OOOOOOOOOOOOOOOOOo.X&OOOOOOOOOOOOOOOOOOo.X",
"XX&OOOOOOOOOOOOOOOo.X&OOOOOOOOOOOOOOOOOo.X&OOOOOOOOOOOOOOOOOOo.X",
"XXOOOOOOOOOOOOOOOoo.X&OOOOOOOOOOOOOOOOOo.X&OOOOOOOOOOOOOOOOOoo.X",
"XXooooooooooooooooo.Xooooooooooooooooooo.XooOoooooooooooooooo..X",
"X..................XXX...................XXX.................XXX",
"XXXXXXXXXXXXXXXXXXXXXXXXXXXXXXXXXXXXXXXXXXXXXXXXXXXXXX.....XXXXX",
"&&&&&&&&&&.XX&&&&&&&&&&&&&&&&&&XX&&&&&&&&&&&&&&&&&&&..XX&&&&&&&.",
"OOOOOOOOOo.X&OOO&&OOOOOOOOOOOOoo.&OOOOOOOOOOOOOOOOXOO.X&&&&&&OOO",
"OOOOOOOOoo.X&OOOOOOOOOOOOOOOOOoo.&OOOOOOOOOOOOOOOOOoo.X&OOOOOOOO",
"OOOOOOOOOo.X&OOOOOOOOOOOOOOOOOoo.&OOOOOOOOOOOOOOOOOoo.X&OOOOOOOO",
"OOOOOOOOOo.X&OOOOOOOOOOOOOOOOOoo.&OOOOOOOOOOOOOOOOOoo.X&OOOOOOOO",
"OOOOOOOOOo.X&OOOOOOOOOOOOOOOOOo..&OOOOOOOOOOOOOOOOOoo.X&OOOOOOOO",
"OOOOOOOOOo.X&OOOOOOOOOOOOOOOoOo.X&OOOOOOOOOOOOOOOOOoo.X&OOOOOOOO",
"oooooooooo.X&oooooooooooooooooo.X&oooooooooooooooooo..o&oooooooo",
"...........XX..................XXXX..................XXX........",
"XXXXXXXXXXXXXXXXXXXXXXXXXXXXXXXXXXXXXXXXXXXXXXXXXXXXXXXXXXXXXXXX",
"XX&&&&&&&&&&&&&&&&o.X&&&&&&&    &&&&&o.XX&&&&&&&.&&&&&&&&&&.X&&&",
"&&&OOOOOOOOOOOOOOOo.X&OOOO  **%%  OOOo.X&OOOOOO&.oOOOOOOOOo.X&OO",
"OOOOOOOOOOOOOOOOOOo.X&OOO ****%%%$ OOo.X&OO.OOO&&.OOOOOOOOo.X&OO",
"OOOOOOOOOOOOOOOOOOo.X&OO ***%%%%%%@ Oo.X&OOOOOOO&.OOOOOOOOo.X&OO",
"OOOOOOOOOOOOOOOOOOo.X&OO %%%%%%%%%@ Oo.X&OOOOOOO&.OOOOOOOOo.X&OO",
"OOOOOOOOOOOOOOOOOoo.X&OO    %% *%%@ Oo.X&OOOOOOOO.OOOOOOOoo.X&OO",
"oOXOOOOOOOOOOOOOOo..X&O #### %  %$@ Oo.X&OOOOOOOOOOOOOOOOoo.X&OO",
"oooooooooooooooooo.XX&o #### %%%$@@ oo  Ooooooooooooooooooo.Xooo",
"X..................X....    $$$$@@  . *$ ...................X...",
"XXXXXXXXXXXXXXXXXXXXXXXXX @@@@@@@@    *$ XXXXXXXXXXXXXXXXXXXXXXX",
"&&&&&o.XX&&&&&&&&&&&&&&& *$$$$$$$$$$$*%$ &&&&&&&.XXX&&&&&&&&&&&&",
"OOOOOo.X&&OOOOOOOOOOOOO *****%%%%%%%%%%$ OOOOOXOo.X&&OOOOOOOOOOO",
"OOOOOo.X&OOXOOOOOOOOOO ******%%%      %@ OOOOOOOo.X&OOOOOOOOOOOO",
"OOOOOo.X&OOOOOOOOOOOOO $%%%%%%% %%%%%+ @ OOOOOOOo.X&OOOOOOOOOOOO",
"OOOOOo.X&OOOOOOOOOOOOO @$$$$$$$ $$$$$  @ OOOOOOOo.X&OOOOOOOOOOOO",
"OOOOOo.X&OOOOOOOOOOOOOO @@$$$$$$     ++ OOOOOOOOo.X&OOOOOOOOOOOO",
"OOOOOo.X&OOOOOOOOOOOOOOO @@@@@@@@+++++ OOOOOOOOOo.X&OOOOOOOOOOOo",
"oooooo..&oooooooooooooooo @@@@@@@@@@@ oooooooooo..Xooooooooooooo",
"..X....XX.................           ............XX.............",
"XXXXXXXXXXXXXXXXXXXXXXXXXXXXXXXXXXXXXXXXXXXXXXXXXXXXXXXXXXXXXXXX",
"&&&&&&&&&&&&&&&&o.XX&&&&&&&&&&&&&&&&&&XX&&&&&&&&&&&&&&&&&&&XXXX&",
"OOOOOOOOOOOOOOOOo.X&&OOOOOOOOOOOOOOOOo.X&OOOOOOOXOOOOOOOOOOo.X&&",
"OOOOOOOOOOOOOOOOo.X&OOXOOOOOOOOOOOOOOo.X&OOOOOOOOOOOOOOOOOOo.X&O",
"OOOOOOOOOOOOOOOOo.X&OOOOOOOOOOOOOOOOOo.X&OOOOOOOOOOOOOOOOOOo.X&O",
"OOOOOOOOOOOOOOOOo.X&OOOOOOOOOOOOOOOOOo.X&OOOOOOOOOOOOOOOOOOo.X&O",
"OOOOOOOOOOOOOOOOo.X&OOOOOOOOOOOOOOOOOo.X&OOOOOOOOOOOOOOOOOOo.X&O",
"OOOOOOOOOOOOOOOOo.X&OOOOOOOOOOOOOOOOoo.X&OOOOOOOOOOOOOOOOOOo.X&O",
"ooooooooooooooooo.Xooooooooooooooooooo.Xoooooooooooooooooooo.Xoo",
"..................X....................X....................XX..",
"XXXXXXXX....XXXXXXXXXXXXXXXXXXXXXXXXXXXXXXXXXXXXXXXXXXXXXXXXXX.X",
"&&&&&&&&.XX&&&&&&&&&&&&.XX&&&&&&&&&&&&XXX&&&&&&&&&&&&.XX&&&&&&&&",
"OOOOOOOOo.X&OOOOOOOOOOOo.X&OOOOOOOOOOOoXX&OOOOOOOOOOOo.X&OOOOOOO",
"OOOOOOOOo.X&OOOOOOOOOOOo.X&OOOOOOOOOOOo.X&OOOOOOOOOOOo.X&OOOOOOO",
"OOOOOOOOo..&OOOOOOOOOOOo.X&OOOOOOOOOOOo.X&OOOOOOOOOOOo..&OOOOOOO",
"OOOOOOOOo..&OOOOOOOOOOOo.X&OOOOOOOOOOOo.X&OOOOOOOOOOOo..&OOOOOOO",
"OOOOOOOOo..&OOOOOOOOOOOo.X&OOOOOOOOOOOo.X&OOOOOOOOOOOo.X&OOOOOOO",
"OOOOOOOOo..&OOOOOOOOOOOo.X&OOOOOOOOOOOo.X&OOOOOOOOOOOo.X&OOOOOOO",
"OOOOOOOOo.X&OOOOOOOOOOOo.X&OOOOOOOOOOoo.X&OOOOOOOOOOOo.X&OOOOOOO",
"ooOOOOOOo.X&OOOOOOOOOOoo.X&OOOOOOOOOOoo.X&OOOOOOOOOOOo.X&OOOOOOO",
"ooooooooo.Xoooooooooooo..X.ooooooooooo..X&oooooooooooo.X&ooooooo",
"..........XX.............X..............XX.............X........",
"XXXXXX.XXXXXXXXXXXXXXXXXXXXXXXXXXXXXXXXXXXXXXXXXXXXXXXXXXXXXXXXX"
};
