/* XPM */
static char *result[] = {
/* columns rows colors chars-per-pixel */
"64 64 12 1 ",
"  c #0B0B28",
". c gray21",
"X c #2E436C",
"o c #484848",
"O c gray39",
"+ c #767676",
"@ c #835F42",
"# c #BD874D",
"$ c #476D89",
"% c #89A2AB",
"& c gray64",
"* c #D8D7C8",
/* pixels */
"oooooooooooooooooooooooooooooooooooooooooooooooooooooooooooooooo",
"oooooooooooooooooooooooooooooooooooooooooooooooooooooooooooooooo",
"oo&&&&&+&&&&&&&&&&O.oo+&&&&&&&&&&&&&&&&O.o&&&&&&&&&&&&&&&&&&&.oo",
"oo&+++++++++++++++O.o&+++++++++++++++++O.o&++++++&o+&o++++&o+O.o",
"oo&+++++++++++++++O.o&++o++++++++++++++O.o&++++++++++++++++++O.o",
"oo&++++++++++++++OO.o&+++++++++++++++++O.o&++++++++++++++++++O.o",
"oo&++++++++++++++OO.o&+++++++++++++++++O.o&++++++++++++++++++O.o",
"oo&+++++++++++++++O.o&+++++++++++++++++O.o&++++++++++++++++++O.o",
"oo+++++++++++++++OO.o&+++++++++++++++++O.o&+++++++++++++++++OO.o",
"ooOOOOOOOOOOOOOOOOO.oOOOOOOOOOOOOOOOOOOO.oOO+OOOOOOOOOOOOOOOO..o",
"o..................ooo...................ooo.................ooo",
"oooooooooooooooooooooooooooooooooooooooooooooooooooooo.....ooooo",
"&&&&&&&&&&.oo&&&&&&&&&&&&&&&&&&oo&&&&&&&&&&&&&&&&&&&..oo&&&&&&&.",
"+++++++++O.o&+++&&++++++++++++OO.&++++++++++++++++o++.o&&&&&&+++",
"++++++++OO.o&+++++++++ +++++++OO.&+++++++++++++++++OO.o&++++++++",
"+++++++++O.o&++++++++ * ++++++OO.&+++++++++++++++++OO.o&++++++++",
"+++++++++O.o&++++++++ @ ++++++OO.&+++++++++++++++++OO.o&++++++++",
"+++++++++O.o&+++++++++ ++++++      ++++++++++++++++OO.o&++++++++",
"+++++++++O.o&+++++++++ ++++  $$$$$$  ++++++++++++++OO.o&++++++++",
"OOOOOOOOOO.o&OOOOOOOOO OO  %%$%$$$$%%  OOOOOOOOOOOOO..O&OOOOOOOO",
"...........oo......... . $*********%%%X .............ooo........",
"oooooooooooooooooooooo  %**          %%$ ooooooooooooooooooooooo",
"oo&&&&&&&&&&&&&&&&O.o&  **  ***       %% &&&&&&&.&&&&&&&&&&.o&&&",
"&&&+++++++++++++++O.o&  *  *           %  +++++&.O++++++++O.o&++",
"++++++++++++++++++O.o $ *   **    **   % $ .+++&&.++++++++O.o&++",
"++++++++++++++++++O. $* %   **    **   % %$ ++++&.++++++++O.o&++",
"++++++++++++++++++O. X$ %   **     *   % $X ++++&.++++++++O.o&++",
"+++++++++++++++++OO. XX %              % XX +++++.+++++++OO.o&++",
"O+o++++++++++++++O..o   %              %   ++++++++++++++OO.o&++",
"OOOOOOOOOOOOOOOOOO.oo&O %%            %% OOOOOOOOOOOOOOOOOO.oOOO",
"o..................o... X%%          %%X ...................o...",
"oooooooooooooooooooooooo X%%%%%%%%%%%%X oooooooooooooooooooooooo",
"&&&&&O.oo&&&&&&&&&&&&&&&&  XXXXXXXXXX  &&&&&&&&&.ooo&&&&&&&&&&&&",
"+++++O.o&&++++++++++++++++O          o++o+++++o+O.o&&+++++++++++",
"+++++O.o&++o++++++++++++++  XXXXXXXX  ++++++++++O.o&++++++++++++",
"+++++O.o&++++++++++++++++  $$$%%%%$$X  +++++++++O.o&++++++++++++",
"+++++O.o&+++++++++++++++ *  $%%  %%X  * ++++++++O.o&++++++++++++",
"+++++O.o&++++++++++++++  @ #$%%  %%X@ @  +++++++O.o&++++++++++++",
"+++++O.o&+++++++++++++ %%  $$$$$$$XXX  %% ++++++O.o&+++++++++++O",
"OOOOOO..&OOOOOOOOOOOO $ $  $%******%X  $ $ OOOOO..oOOOOOOOOOOOOO",
"..o....oo........... %** . $ %    % X . **% .....oo.............",
"oooooooooooooooooooo XXX o X%%%%%%%%X o XXX oooooooooooooooooooo",
"&&&&&&&&&&&&&&&&O.oo&  X &   XXXXXX   o X  &&&&&&&&&&&&&&&&oooo&",
"++++++++++++++++O.o&&++ ++ #@      @@ .o +++++++o++++++++++O.o&&",
"++++++++++++++++O.o&++o+++  #@ ++ @#  .o&++++++++++++++++++O.o&+",
"++++++++++++++++O.o&++++++ $$X ++ X$$ .o&++++++++++++++++++O.o&+",
"++++++++++++++++O.o&++++++ **X ++ X** .o&++++++++++++++++++O.o&+",
"++++++++++++++++O.o&++++++ $$X ++ X$$ .o&++++++++++++++++++O.o&+",
"++++++++++++++++O.o + +                  + + ++++++++++++++O.o&+",
"OOOOOOOOOOOOOOOOO.oOOOOOOOOOOOOOOOOOOO.oOOOOOOOOOOOOOOOOOOOO.oOO",
"..................o....................o....................oo..",
"oooooooo....oooooooooooooooooooooooooooooooooooooooooooooooooo.o",
"&&&&&&&&.oo&&&&&&&&&&&&.oo&&&&&&&&&&&&ooo&&&&&&&&&&&&.oo&&&&&&&&",
"++++++++O.o&+++++++++++O.o&+++++++++++Ooo&+++++++++++O.o&+++++++",
"++++++++O.o&+++++++++++O.o&+++++++++++O.o&+++++++++++O.o&+++++++",
"++++++++O..&+++++++++++O.o&+++++++++++O.o&+++++++++++O..&+++++++",
"++++++++O..&+++++++++++O.o&+++++++++++O.o&+++++++++++O..&+++++++",
"++++++++O..&+++++++++++O.o&+++++++++++O.o&+++++++++++O.o&+++++++",
"++++++++O..&+++++++++++O.o&+++++++++++O.o&+++++++++++O.o&+++++++",
"++++++++O.o&+++++++++++O.o&++++++++++OO.o&+++++++++++O.o&+++++++",
"OO++++++O.o&++++++++++OO.o&++++++++++OO.o&+++++++++++O.o&+++++++",
"OOOOOOOOO.oOOOOOOOOOOOO..o.OOOOOOOOOOO..o&OOOOOOOOOOOO.o&OOOOOOO",
"..........oo.............o..............oo.............o........",
"oooooo.ooooooooooooooooooooooooooooooooooooooooooooooooooooooooo"
};
