/* XPM */
static char *result[] = {
/* columns rows colors chars-per-pixel */
"64 64 12 1 ",
"  c black",
". c gray21",
"X c #046304",
"o c #006C6C",
"O c #484848",
"+ c gray39",
"@ c DimGray",
"# c #767676",
"$ c #00D807",
"% c #A0A09E",
"& c gray64",
"* c #D8D8D8",
/* pixels */
"OOOOOOOOOOOOOOOOOOOOOOOOOOOOOOOOOOOOOOOOOOOOOOOOOOOOOOOOOOOOOOOO",
"OOOOOOOOOOOOOOOOOOOOOOOOOOOOOOOOOOOOOOOOOOOOOOOOOOOOOOOOOOOOOOOO",
"OO&&&&&#&&&&&&&&&&+.OO#&&&&&&&&&&&&&&&&+.O&&&&&&&&&&&&&&&&&&&.OO",
"OO&###############+.O&#################+.O&######&O#&O####&O#+.O",
"OO&###############+.O&##O##############+.O&##################+.O",
"OO&##############++.O&#################+.O&##################+.O",
"OO&##############++.O&#################+.O&##################+.O",
"OO&###############+.O&#################+.O&##################+.O",
"OO###############++.O&#################+.O&#################++.O",
"OO+++++++++++++++++.O+++++++++++++++++++.O++#++++++++++++++++..O",
"O..................OOO...................OOO.................OOO",
"OOOOOOOOOOOOOOOOOOOOOOOOOOOOOOOOOOOOOOOOOOOOOOOOOOOOOO.....OOOOO",
"&&&&&&&&&&.OO&&&&&&&&&&&&&&&&&&OO&&&&&&&&&&&&&&&&&&&..OO&&&&&&&.",
"#########+.O&###&&############++.&################O##.O&&&&&&###",
"########++.O&#################++.&#################++.O&########",
"#########+.O&#################++.&#################++.O&########",
"#########+.O&############@@@@@@@@@@@@@@@@@@ #######++.O&########",
"#########+.O&###########@%%%%%%%%%%%%%%%%*@ #######++.O&########",
"#########+.O&##########@*****************@@ #######++.O&########",
"++++++++++.O&+++++++++@*%%%%%%%%%%%%%%%%%@@ ++++++++..+&++++++++",
"...........OO.........@*%@@@@@@@@@@@@@@*%@@ .........OOO........",
"OOOOOOOOOOOOOOOOOOOOOO@*%             @*%@@ OOOOOOOOOOOOOOOOOOOO",
"OO&&&&&&&&&&&&&&&&+.O&@*% oooooooooooo@*%@@ &&&&.&&&&&&&&&&.O&&&",
"&&&###############+.O&@*% oooooooooooo@*%@@ ###&.+########+.O&##",
"##################+.O&@*% oooooooooooo@*%@@ ###&&.########+.O&##",
"##################+.O&@*% oooooooooooo@*%@@ ####&.########+.O&##",
"##################+.O&@*% oooooooooooo@*%@@ ####&.########+.O&##",
"#################++.O&@*% oooooooooooo@*%@@ #####.#######++.O&##",
"+#O##############+..O&@*% oooooooooooo@*%@@ #############++.O&##",
"++++++++++++++++++.OO&@*% oooooooooooo@*%@@ +++++++++++++++.O+++",
"O..................O..@*%@@@@@@@@@@@@@@*%@@ ................O...",
"OOOOOOOOOOOOOOOOOOOOOO@*%***************%@@ OOOOOOOOOOOOOOOOOOOO",
"&&&&&+.OO&&&&&&&&&&&&&@*%%%%%%%%%%%%%%%%%@@ @@&&.OOO&&&&&&&&&&&&",
"#####+.O&&############@@@@@@@@@@@@@@@@@@@@ @@% #+.O&&###########",
"#####+.O&##O##########                    @@%@ #+.O&############",
"#####+.O&###########@@@@@@@@@@@@@@@@@@@@@@@%@@ #+.O&############",
"#####+.O&##########@***********************@@@ #+.O&############",
"#####+.O&##########@*%%%%%%%%%%%%%%%%%%%%%%@@@ #+.O&############",
"#####+.O&##########@*%%%%%%%%%%@@@@@@@@@@%%@@@ #+.O&###########+",
"++++++..&++++++++++@*%%$$%%%%%%          %%@@@ +..O+++++++++++++",
"..O....OO..........@*%%XX%%%%%%%%%%%%@%%%%%@@@ ..OO.............",
"OOOOOOOOOOOOOOOOOOO@*%%%%%%%%%%%%%%%%%%%%%%@@@ OOOOOOOOOOOOOOOOO",
"&&&&&&&&&&&&&&&&+.O@@@ *@ *@ *@ *@ *@ *@ * @@ &&&&&&&&&&&&&OOOO&",
"################+.@*@ *@ *@ *@ *@ *@ *@ *@@  ###O##########+.O&&",
"################+@*@ @@ @@ @@ @@ @@ @@ @@@@ ###############+.O&#",
"################@***********************%@ ################+.O&#",
"################@%%%%%%%%%%%%%%%%%%%%%%%@ #################+.O&#",
"################+                        ##################+.O&#",
"################+.O&################++.O&##################+.O&#",
"+++++++++++++++++.O+++++++++++++++++++.O++++++++++++++++++++.O++",
"..................O....................O....................OO..",
"OOOOOOOO....OOOOOOOOOOOOOOOOOOOOOOOOOOOOOOOOOOOOOOOOOOOOOOOOOO.O",
"&&&&&&&&.OO&&&&&&&&&&&&.OO&&&&&&&&&&&&OOO&&&&&&&&&&&&.OO&&&&&&&&",
"########+.O&###########+.O&###########+OO&###########+.O&#######",
"########+.O&###########+.O&###########+.O&###########+.O&#######",
"########+..&###########+.O&###########+.O&###########+..&#######",
"########+..&###########+.O&###########+.O&###########+..&#######",
"########+..&###########+.O&###########+.O&###########+.O&#######",
"########+..&###########+.O&###########+.O&###########+.O&#######",
"########+.O&###########+.O&##########++.O&###########+.O&#######",
"++######+.O&##########++.O&##########++.O&###########+.O&#######",
"+++++++++.O++++++++++++..O.+++++++++++..O&++++++++++++.O&+++++++",
"..........OO.............O..............OO.............O........",
"OOOOOO.OOOOOOOOOOOOOOOOOOOOOOOOOOOOOOOOOOOOOOOOOOOOOOOOOOOOOOOOO"
};
